<?xml version="1.0" encoding="UTF-8"?><svg xmlns="http://www.w3.org/2000/svg" xmlns:xlink="http://www.w3.org/1999/xlink" height="21.3" preserveAspectRatio="xMidYMid meet" version="1.0" viewBox="3.0 34.1 90.0 21.3" width="90.0" zoomAndPan="magnify"><g id="change1_1"><path d="M37.75,47.77c-0.14-0.33-0.29-0.66-0.45-0.98c-0.13-0.29-0.27-0.57-0.41-0.85 c-0.05-0.11-0.11-0.22-0.17-0.33c-0.38-0.76-0.79-1.5-1.21-2.24c0.83-1.71,2.08-3.23,3.73-4.17c-1.6,0.84-3.02,2.01-4.17,3.39 c-0.35-0.62-0.72-1.24-1.08-1.86c0.28,0.75,0.54,1.5,0.78,2.26c-0.56,0.72-1.05,1.49-1.45,2.31c-0.14,0.29-0.26,0.58-0.37,0.88 c-0.07,0.15-0.13,0.31-0.18,0.46c-0.52-0.26-1.04-0.52-1.55-0.79c-0.11-0.06-0.21-0.11-0.31-0.17c-1.11-0.65-2.13-1.47-2.87-2.52 c-0.73-1.05-1.17-2.34-1.08-3.62c-0.22,1.98,0.21,4,1.11,5.77c0.04,0.06,0.08,0.13,0.11,0.19c0.07,0.13,0.14,0.26,0.22,0.39 c-0.13,0.65-0.24,1.3-0.32,1.96c0,0,0,0.01,0,0.02c-0.11,0.79-0.18,1.59-0.21,2.39c-0.02,0.11-0.02,0.22-0.02,0.33 c-0.02,0.4-0.03,0.79-0.03,1.19c0,0.38,0.01,0.76,0.02,1.14c-0.28-1.3-0.61-2.58-1.03-3.84c-0.08-0.23-0.16-0.46-0.24-0.69 c-0.2-0.56-0.42-1.11-0.66-1.65c-0.06-0.16-0.13-0.32-0.21-0.47c-0.46-1.01-0.99-1.98-1.61-2.9c-0.1-0.15-0.2-0.3-0.32-0.45 c-0.37-0.54-0.79-1.06-1.23-1.56c0.32,1.22,0.64,2.44,0.95,3.67c0.19,0.7,0.36,1.4,0.53,2.1c0,0.01,0.01,0.03,0.01,0.04 c0.22,0.9,0.43,1.81,0.63,2.72c0.4,1.76,0.75,3.53,1.03,5.32c-0.07-0.07-0.14-0.14-0.21-0.21c-0.48-1.78-1.28-3.49-1.97-5.22 c-0.29-0.73-0.56-1.47-0.8-2.22c-1.21-3.59-1.93-7.34-2.14-11.12c-0.01,2.87,0.18,5.73,0.58,8.57c0.12,0.91,0.27,1.83,0.44,2.74 c0.19,1.03,0.4,2.05,0.64,3.07c-0.51-0.84-0.98-1.7-1.39-2.59c-0.18-0.38-0.35-0.77-0.51-1.16c-0.48-1.18-0.86-2.39-1.16-3.62 c-0.16-0.7-0.29-1.4-0.39-2.1c-0.08-0.5-0.13-1-0.17-1.5c0,0.65,0,1.3,0.03,1.95c0.04,1.69,0.17,3.37,0.42,5.04 c0.11,0.72,0.24,1.44,0.4,2.15c0.14,0.6,0.3,1.21,0.48,1.8c0.47,1.56,1.09,3.07,1.89,4.48H34.7c-0.21-1.4-0.39-2.8-0.47-4.22v-0.3 c0.48,0.28,0.95,0.59,1.36,0.96c0.18,0.14,0.34,0.31,0.5,0.49c0.22,0.24,0.39,0.5,0.55,0.77c0.02,0.03,0.03,0.06,0.05,0.09 c0.05,0.73,0.08,1.47,0.09,2.21h2.89C39.54,52.68,38.78,50.15,37.75,47.77z M30.16,55.14c-0.23-0.74-0.45-1.49-0.64-2.24v-0.01 c-0.01-0.05-0.02-0.09-0.03-0.13c-0.11-0.44-0.21-0.87-0.3-1.3c-0.08-0.38-0.16-0.77-0.22-1.15c-0.01-0.05-0.02-0.1-0.03-0.15 c-0.09-0.47-0.16-0.94-0.22-1.41c-0.13-0.93-0.23-1.86-0.29-2.8c0.34,0.55,0.72,1.07,1.15,1.55c0.06,0.95,0.13,1.9,0.2,2.85 c0.07,1.04,0.16,2.08,0.24,3.11C30.07,54.02,30.11,54.58,30.16,55.14z M29.6,47.53c0.56,0.61,1.17,1.17,1.86,1.63 c0.05,0.03,0.1,0.06,0.16,0.1c0.14,0.08,0.29,0.16,0.44,0.25c-0.05,0.34-0.08,0.68-0.09,1.03c-0.04,0.55-0.04,1.1,0,1.65 c0.03,0.49,0.09,0.97,0.17,1.45c-0.32-0.77-0.67-1.54-1.01-2.3C30.56,50.09,30,48.83,29.6,47.53z M35.84,49.07 c-0.24-0.35-0.53-0.68-0.85-0.97c-0.03-0.04-0.07-0.08-0.11-0.11c-0.17-0.15-0.36-0.27-0.54-0.4c0.13-1.1,0.36-2.18,0.74-3.21 c0.02-0.05,0.04-0.1,0.06-0.15c0.25,0.87,0.47,1.74,0.65,2.63c0.1,0.42,0.19,0.84,0.26,1.27c0.11,0.57,0.21,1.14,0.29,1.72 C36.19,49.58,36.03,49.32,35.84,49.07z M18.98,47.97c-0.22-1.05-0.55-2.06-0.99-3.04c-0.61-1.41-1.42-2.74-2.37-3.96 c0.09-2.23,0.48-4.44,1.26-6.53c-1,1.68-1.73,3.5-2.22,5.38c-0.14-0.15-0.27-0.3-0.4-0.45c0.12,0.22,0.22,0.45,0.34,0.68 c-0.09,0.37-0.18,0.74-0.25,1.11c-0.03,0.17-0.07,0.34-0.09,0.51c-0.33,1.76-0.46,3.55-0.41,5.33c0.01,0.31,0.03,0.61,0.05,0.92 c-0.2-0.21-0.41-0.41-0.64-0.6c0.02-0.2,0.04-0.39,0.05-0.59c0.15-1.95,0.24-3.94-0.21-5.85c-0.65-2.78-2.47-5.28-4.93-6.75 c0.93,0.7,1.71,1.59,2.27,2.61c1.07,1.93,1.32,4.2,1.23,6.4c-0.04,1-0.14,1.99-0.27,2.98c-0.82-0.35-1.7-0.54-2.59-0.44 c-1.84,0.21-3.33,1.57-4.47,3.02c0.87-0.55,1.75-1.12,2.72-1.45c0.45-0.16,0.92-0.25,1.39-0.28c-0.36,0.82-0.62,1.68-0.76,2.56 c-0.1,0.58-0.14,1.18-0.12,1.78c0,0.07,0.01,0.14,0.02,0.21c0.06,0.96,0.29,1.92,0.7,2.8c0.14,0.33,0.31,0.65,0.51,0.95h4.92 c-0.32-0.86-0.5-1.77-0.59-2.68c-0.08-0.87-0.08-1.75-0.04-2.63c0.47,0.61,0.9,1.24,1.28,1.9c0.21,1.15,0.48,2.29,0.79,3.41h3.32 C19.33,52.97,19.48,50.4,18.98,47.97z M9.11,49.49c-0.22-0.82-0.32-1.67-0.29-2.52c0.43,0,0.86,0.06,1.27,0.23 c0.4,0.16,0.76,0.4,1.1,0.68c-0.07,0.6-0.14,1.21-0.19,1.82c-0.01,0.07-0.01,0.14-0.01,0.21c-0.07,0.85-0.09,1.71-0.04,2.56 c0.01,0.23,0.02,0.46,0.05,0.69c-0.1-0.12-0.2-0.24-0.29-0.37C9.96,51.81,9.41,50.68,9.11,49.49z M16.59,49.77 c-0.27-1.1-0.51-2.21-0.67-3.34c-0.11-0.74-0.2-1.49-0.25-2.24c-0.05-0.63-0.08-1.26-0.08-1.89c0.5,1.4,0.82,2.86,0.96,4.34 C16.66,47.68,16.67,48.73,16.59,49.77z M64.94,48.13C64.69,47,64.38,45.85,63.96,44.75c-0.2-0.56-0.44-1.11-0.7-1.64 c-0.01-0.02-0.02-0.04-0.03-0.06c-0.51-1.03-1.15-1.98-1.95-2.82c0.48,1.02,0.86,2.09,1.16,3.18c0.02,0.06,0.03,0.13,0.05,0.19 c0.03,0.11,0.05,0.21,0.08,0.32c-0.73,1.17-1.28,2.44-1.64,3.77c-0.03,0.13-0.07,0.26-0.1,0.39c-0.01,0.05-0.02,0.09-0.03,0.14 h-0.01c-0.03,0.01-0.07,0.01-0.1,0.01c-0.21,0.03-0.43,0.05-0.63,0.1c-0.14-0.48-0.28-0.95-0.43-1.42 c-0.03-0.09-0.06-0.17-0.09-0.26c-0.12-0.38-0.26-0.75-0.4-1.12c-0.26-0.71-0.54-1.41-0.83-2.1c0.04-0.02,0.07-0.04,0.11-0.06 c-0.04,0.01-0.08,0.03-0.12,0.04c-0.7-1.66-1.46-3.3-2.25-4.93c-0.01-0.02-0.02-0.03-0.02-0.05c-0.05-0.09-0.09-0.17-0.13-0.26 c0.04,0.11,0.07,0.21,0.1,0.32c0.02,0.03,0.03,0.07,0.03,0.11c0.55,1.68,0.93,3.42,1.19,5.18c-1.38,0.6-2.58,1.63-3.42,2.89 c-0.77,1.16-1.26,2.49-1.5,3.86c-0.04,0.21-0.07,0.42-0.1,0.63c-0.06-0.12-0.12-0.25-0.18-0.38c0.04-0.51,0.11-1.01,0.19-1.51 c0.26-1.68,0.66-3.34,0.85-5.02c0.05-0.43,0.09-0.86,0.1-1.29c0.02-0.43,0.01-0.87-0.02-1.3c-0.06-0.75-0.21-1.53-0.73-2.08 c-0.4-0.43-0.98-0.66-1.57-0.71c-0.58-0.06-1.17,0.05-1.74,0.21c1.08-0.1,2.15,0.53,2.75,1.43c0.6,0.9,0.8,2.03,0.75,3.11 c-0.01,0.21-0.03,0.42-0.06,0.62c-0.1,0.87-0.32,1.72-0.54,2.57c-0.24,0.94-0.47,1.89-0.53,2.86c-0.09-0.19-0.18-0.38-0.27-0.57 c-0.02-0.04-0.04-0.08-0.06-0.12c-0.41-0.89-0.75-1.81-1.07-2.73c0.09-0.76,0.21-1.52,0.39-2.26c-0.25,0.45-0.48,0.91-0.69,1.37 C49.33,43.94,49,42.48,48.78,41c-0.07,1.9,0.09,3.81,0.49,5.68c-0.05,0.13-0.09,0.26-0.13,0.39c-0.11,0.33-0.21,0.67-0.3,1 c-0.08,0.29-0.14,0.59-0.2,0.88c-0.15-0.12-0.3-0.24-0.45-0.35c-0.61-0.41-1.27-0.73-1.96-0.96c-0.14-0.05-0.29-0.1-0.43-0.14 c-0.01-0.1-0.01-0.19-0.01-0.29c-0.05-0.81-0.04-1.62,0.03-2.43c0-0.06,0-0.11,0.01-0.17c0.14-1.71,0.49-3.43,0.99-5.07 c-1.29,2.05-2.12,4.35-2.51,6.73c-0.04,0.21-0.07,0.42-0.09,0.63c-0.02,0.09-0.03,0.19-0.04,0.28c-0.47-0.04-0.95-0.04-1.42,0 c-0.68-0.98-1.44-1.9-2.25-2.78c-0.29-0.33-0.59-0.65-0.9-0.96c-0.21-0.22-0.43-0.44-0.65-0.66c0.16,0.31,0.32,0.62,0.47,0.93 c0.28,0.55,0.56,1.1,0.82,1.66c0.21,0.44,0.41,0.89,0.61,1.34c-0.33,1.6-0.54,3.25-0.38,4.89c0.04,0.41,0.11,0.83,0.21,1.24v0.01 c0.19,0.85,0.51,1.68,0.96,2.42h6.59c-0.37-0.98-0.91-1.92-1.32-2.89c-0.53-1.26-0.85-2.58-1.02-3.92c0.59,0.38,1.13,0.82,1.6,1.31 c0.09,0.08,0.16,0.16,0.24,0.24c0.24,0.26,0.44,0.54,0.65,0.82c-0.04,0.52-0.06,1.03-0.05,1.55c0.01,0.53,0.03,1.07,0.09,1.59 c0.04,0.44,0.1,0.87,0.18,1.3h5.96c0.05-0.04,0.09-0.09,0.14-0.14c1.17-1.22,1.81-2.84,2.8-4.19c-0.1,1.45-0.28,2.9-0.56,4.33h4.04 c0.02,0.06,0.04,0.12,0.06,0.18c-0.01-0.06-0.01-0.12-0.02-0.18h3.51c0.42-0.7,0.69-1.5,0.8-2.3 C65.58,51.36,65.3,49.72,64.94,48.13z M44.14,47.58c-0.05,0.55-0.08,1.11-0.09,1.68c-0.13-0.26-0.28-0.52-0.43-0.77 c-0.26-0.44-0.54-0.86-0.83-1.27C43.25,47.3,43.7,47.41,44.14,47.58z M42.17,52.9c-0.71-1.96-1.14-4.01-1.27-6.09 c0.08,0.19,0.16,0.38,0.24,0.57c0,0.01,0,0.02,0.01,0.03c0.25,0.6,0.49,1.21,0.68,1.83c0.48,1.53,0.77,3.15,0.76,4.75 C42.44,53.63,42.3,53.27,42.17,52.9z M50.5,51c-0.16-0.25-0.33-0.49-0.52-0.72c-0.03-0.38-0.05-0.76-0.05-1.14 C50.12,49.76,50.33,50.38,50.5,51z M60.52,48.62c0.05-0.02,0.1-0.04,0.16-0.05c0.02-0.01,0.03-0.01,0.05-0.02 c-0.11,0.53-0.18,1.07-0.22,1.6c-0.03-0.12-0.05-0.24-0.08-0.36c-0.04-0.19-0.09-0.37-0.14-0.56c-0.03-0.16-0.08-0.32-0.12-0.48 C60.28,48.71,60.4,48.66,60.52,48.62z M54.91,51.77c-0.16,0.2-0.31,0.41-0.44,0.62c-0.4,0.61-0.73,1.27-0.99,1.95 c-0.05-0.16-0.09-0.32-0.14-0.48c0.09-0.14,0.1-0.32,0.09-0.49v-0.04c-0.01-0.35-0.01-0.7-0.01-1.05c0.01-0.66,0.05-1.31,0.12-1.97 c0.02-0.2,0.04-0.4,0.07-0.6c0.16-1.23,0.44-2.47,1.11-3.51c0.62-0.96,1.53-1.67,2.53-2.23c0.14,1.04,0.24,2.08,0.29,3.13 c0.05,0.75,0.06,1.5,0.05,2.25C56.55,49.98,55.64,50.81,54.91,51.77z M62.77,52.11c-0.25-0.99-0.41-2-0.47-3.03 c-0.09-1.54,0.04-3.1,0.4-4.61c0.09,0.42,0.17,0.84,0.23,1.26c0.09,0.66,0.16,1.33,0.19,2c0.03,1.01-0.01,2.03-0.12,3.03 C62.95,51.22,62.87,51.67,62.77,52.11z M87.784,43.6998c-0.3327,0.152-0.6489,0.3361-0.9731,0.5052 C87.1253,44.0193,87.4472,43.8461,87.784,43.6998z M89.4,46.33c-0.02-0.12-0.03-0.24-0.05-0.36c-0.08-0.62-0.18-1.24-0.28-1.85 c-0.38,0.83-0.51,1.72-0.52,2.62C88.54,47.27,88.56,47.81,88.59,48.35C88.62,49.03,88.66,49.71,88.66,50.38 c0,0.25-0.02,0.5-0.04,0.75c-0.02,0.17-0.04,0.34-0.07,0.5c-0.11,0.77-0.33,1.52-0.64,2.23c-0.08,0.18-0.23,0.4-0.38,0.64 c-0.04-0.41-0.13-0.83-0.23-1.23c-0.04-0.16-0.09-0.33-0.12-0.49c-0.24-0.88-0.45-1.75-0.64-2.63c0.06-0.2,0.12-0.4,0.17-0.6 c0.46-1.63,0.59-3.35,0.34-5.02c-0.07,1.16-0.43,2.28-0.95,3.33c-0.17-0.97-0.29-1.94-0.37-2.91c0.35-0.27,0.7-0.52,1.07999-0.74 c-0.37,0.19-0.74,0.37-1.09,0.59c-0.01-0.13-0.03-0.26-0.04-0.38c-0.17-3,0.17-6.07,1.38-8.82c-1.74,2.68-2.61,5.86-2.82,9.06 c-0.00999,0.1-0.00999,0.21-0.02,0.32c-0.01,0.16-0.01,0.32-0.02,0.48v0.33c-0.6,0.43-1.17,0.89-1.71999,1.4 c-0.8,0.69-1.55,1.46-2.24001,2.28c-0.06-0.53-0.11-1.05-0.13-1.58c-0.06-1.08-0.03-2.17,0.09-3.25 C80.3,43.85,80.44,43.05,80.62,42.27c0.16-0.64,0.29-1.73,0.68999-2.26c-0.89,1.18-1.42,2.6-1.71,4.05 c-0.13,0.64-0.21,1.3-0.26,1.96c-0.07,0.81-0.1,1.63-0.12,2.44c-0.01,0.53-0.02,1.07,0,1.6c-0.01,0.23,0,0.45,0.01,0.68 c-0.36,0.49-0.7,0.97-1.01,1.48c0.23-1.24,0.22-2.52,0.04-3.77c-0.04-0.29-0.09-0.58-0.15-0.87c-0.01-0.01-0.01-0.02-0.01-0.03 c-0.3-1.46-0.79-2.88-1.32-4.27c0.16,1.51,0.24,3.04,0.17,4.56c-0.02,0.59-0.07,1.17-0.14999,1.75 c-0.01,0.12-0.03001,0.25-0.05,0.37c-0.03,0.17-0.06,0.34-0.09,0.51c-0.14001,0.71-0.34,1.4-0.57001,2.09 c0-0.27-0.00999-0.54-0.02-0.81c-0.06-1.96-0.22-3.92-0.51-5.86c0.10001-0.15,0.2-0.31,0.28-0.47 c0.03001-0.04,0.05-0.07,0.07001-0.11c0.41-0.74,0.68999-1.54,0.77-2.38c0.17-1.89-0.67-3.71-1.74-5.31 c0.85,1.4,0.88,3.22,0.35,4.79c-0.51,1.52-1.47,2.83-2.53,4.03c-0.07,0.08-0.14,0.15-0.22,0.23c-0.06,0.07-0.12,0.15-0.19,0.22 c-0.07-2.2,0.43-4.46,1.7-6.26C72.22,42.67,70.99,45.25,70.56,47.96c-0.05,0.3-0.06,0.6-0.07999,0.9 C69.94,49.42,69.42,50.01,68.95,50.63c-0.1,0.13-0.2,0.26-0.28999,0.39c-0.04,0.06-0.08,0.12-0.12,0.19 c-0.07-1.07-0.17-2.14-0.32-3.2c-0.17-1.26-0.39-2.51-0.66-3.75c-0.14-0.61-0.28-1.2-0.43999-1.8c-0.01,0.79-0.02,1.59-0.05,2.38 c-0.04,1.71-0.14,3.4-0.4,5.08c-0.07,0.44-0.14,0.88-0.23,1.31c-0.16,0.75-0.35001,1.49-0.59,2.21c-0.18,0.55-0.37,1.2-0.42,1.83 h3.12c0.06-0.42,0.09-0.81,0.09-1.04c0-0.31-0.02-0.61-0.03-0.92c0.17-0.27,0.35-0.54,0.54-0.81c0.12-0.18,0.26-0.36,0.4-0.53 c0.28-0.33,0.59-0.65,0.89-0.95c0.07,1.01,0.23,2.02,0.49,3.01c0.06,0.27,0.14,0.53,0.22,0.8c0.04,0.13,0.08,0.29,0.12,0.44h3.07 c0.04-0.57-0.2-1.2-0.42-1.75c-0.58-1.44-1.05-2.93-1.33-4.45c0.24001-0.2,0.47-0.41,0.7-0.61c0.19-0.17,0.37-0.34,0.55-0.52 L74.08,47.7c0.21-0.22,0.42-0.44,0.62-0.67c0.28001-0.33,0.55-0.68,0.79-1.04c0.06001,1.86-0.05,3.72-0.32999,5.55 c-0.18,1.26-0.45,2.51-0.8,3.73h2.69c0.03999-0.05,0.07999-0.11,0.11-0.16C77.17,55.13,77.19,55.16,77.2,55.18 c0.02,0.03,0.04,0.06,0.06001,0.09h6.18c0.39-0.39,0.75999-0.82,1.1-1.26c0.15-0.2,0.3-0.4,0.44-0.61 c0.10999,0.62,0.24,1.25,0.35,1.87h3.88c0-0.02,0.01-0.03,0.01-0.04c0.13-0.59,0.24-1.19,0.3-1.79c0.08-0.54,0.13-1.08,0.15-1.63 c0.02-0.37,0.03-0.73,0.03-1.1C89.7,49.25,89.58,47.79,89.4,46.33z M81.16,53.22C81.13,53.25,81.09,53.28,81.06,53.3 c-0.00999-0.02-0.02-0.06-0.03-0.08c-0.02-0.06-0.03-0.13-0.05-0.19c0.03999-0.15,0.07999-0.3,0.13-0.44 c0.36-1.33,0.84-2.63,1.49-3.84c0.37-0.69,0.81001-1.35,1.3-1.96c0.09-0.13,0.2-0.25,0.3-0.37c0,0.37,0.01,0.73,0.03001,1.1 c0,0.29,0.02,0.58,0.03,0.87c0.02,0.28,0.04,0.57,0.07,0.85c0.04,0.34,0.08,0.68,0.13,1.02c-0.08,0.1-0.16,0.2-0.25,0.29 c-0.29,0.32-0.6,0.63-0.92,0.93c-0.27,0.25-0.55,0.49-0.83,0.72C82.04,52.56,81.6,52.9,81.16,53.22z" fill="#6D9826"/></g><g id="change2_2"><path d="M68.43,39.46c-0.28-1.08-0.77-2.08-1.29-3.06c0.73,1.51,0.62,3.31,0.05,4.89 c-0.56001,1.56-1.53,2.94-2.52,4.28c-0.21-0.38-0.45-0.75-0.74-1.09c0.01,0.09,0.02,0.18,0.03,0.27c0.06,0.52,0.12,1.03,0.17,1.55 c-0.34,0.47-0.69,0.95-1.01,1.43c-0.29,0.44-0.57,0.89-0.82,1.35c-0.13,0.24-0.26,0.49-0.37,0.74c-0.15,0.35-0.29,0.7-0.4,1.07 c-0.38-0.13-0.77-0.23-1.17-0.28h-0.03c0.02-0.27,0.05-0.55,0.1-0.82c0.06-0.41,0.14-0.82,0.25-1.22c0.03-0.12,0.07-0.24,0.11-0.35 c0.01-0.05,0.02-0.09,0.04-0.14c0.14-0.42,0.31-0.84,0.51-1.24c-0.14,0.28-0.28,0.56-0.41,0.85c-0.09,0.18-0.17,0.36-0.24,0.54 c-0.06,0.13-0.12,0.26-0.17,0.39c-0.08,0.2-0.16,0.41-0.23,0.61c-0.17,0.45-0.32,0.91-0.45,1.37c-0.67-0.04-1.34,0-2,0.15 c0.16-0.75,0.38-1.48,0.67-2.19c0.24-0.57,0.53-1.12,0.86-1.65c0.04-0.02,0.09-0.05,0.13-0.07c-0.03,0.01-0.07,0.02-0.11,0.03 c0.05-0.07,0.09-0.15,0.15-0.22c0.78-1.2,1.78-2.25,2.95-3.05c0.25-0.18,0.51-0.34,0.77-0.49c0.2-0.12,0.4-0.22,0.6-0.32 c-0.21,0.08-0.42,0.16-0.63,0.26c-0.27,0.1-0.53,0.22-0.79,0.36c-1.18,0.56-2.3,1.27-3.3,2.12c-0.58,0.48-1.12,1.01-1.6,1.57 c-0.14,0.15-0.27,0.3-0.39,0.45c-1.32,0.6-2.51,1.51-3.47,2.6c-0.05,0.05-0.09,0.1-0.14,0.16c-0.44,0.52-0.85,1.1-1.2,1.7 c0.01-0.18,0.01-0.36,0.01-0.54c-0.01-0.31-0.03-0.63-0.05-0.94c-0.03-0.42-0.06-0.84-0.09-1.26c-0.01-0.31-0.02-0.63-0.02-0.94 c0.02-1.4,0.32-2.79,0.87-4.08c0.16-0.38,0.34-0.74,0.54-1.09c0.86-1.5,2.12-2.88,2.43-4.56c0.01-0.04,0.01-0.08,0.02-0.12 c0.01-0.05,0.01-0.1,0.02-0.15c-0.01,0.03-0.03,0.07-0.04,0.1c-0.01,0.02-0.02,0.04-0.03,0.06c-0.45,1.03-1.18,1.91-1.83,2.83 c-0.37,0.53-0.7,1.08-1.01,1.64c-0.22,0.42-0.43,0.84-0.62,1.28c-0.68,1.54-1.13,3.19-1.34,4.86c-0.09,0.73-0.14,1.46-0.14,2.2 c-0.16-0.75-0.38-1.48-0.69-2.18c-0.32-0.73-0.74-1.42-1.23-2.05c-0.88-1.1-2.01-1.98-3.31-2.46c-0.15-0.05-0.3-0.1-0.46-0.14 c0.15,0.1,0.3,0.2,0.45,0.31c1.21,0.88,2.24,2.01,3.02,3.29c1.06,1.7,1.69,3.68,1.76,5.69v0.07c-0.4-0.78-1.03-1.49-1.82-1.51 c-0.15-0.01-0.29,0.02-0.44,0.06c-0.07,0.02-0.14,0.04-0.21,0.07c-0.02-0.11-0.03-0.22-0.04-0.32c-0.13-0.8-0.3-1.6-0.59-2.36 c-0.26-0.69-0.61-1.35-1.08-1.92c-0.06-0.07-0.12-0.14-0.19-0.21c-0.13-0.16-0.28-0.3-0.44-0.43c-0.44-0.4-0.94-0.71-1.48-0.94 c-0.58-0.25-1.2-0.41-1.83-0.45c0.67,0.2,1.25,0.58,1.74,1.08c0.55,0.55,0.97,1.24,1.25,1.98c0.52,1.38,0.56,2.89,0.5,4.37 c-0.02,0.43-0.04,0.86-0.07,1.29c-0.17,0.24-0.34,0.48-0.5,0.73h3.06c-0.06-0.43-0.11-0.86-0.16-1.29 c0.05-0.01,0.09-0.01,0.13-0.01c0.09,0,0.16,0.01,0.24,0.03c0.47,0.14,0.73,0.63,0.86,1.1c0.01,0.04,0.02,0.1,0.04,0.17h4.39 c0.14-0.26,0.29-0.51,0.45-0.76c-0.02,0.25-0.02,0.51-0.02,0.76h3.26c-0.13-1.15-0.13-2.31,0.01-3.45 c0.63-0.25,1.29-0.39,1.96-0.44c-0.12,0.49-0.21,0.99-0.27,1.49c-0.1,0.8-0.12,1.6-0.06,2.4h1.7c-0.24-0.69-0.45-1.39-0.58-2.11 c-0.1-0.6-0.13-1.21-0.13-1.81c0.03,0,0.05-0.01,0.08-0.01c0.34,0.02,0.66,0.08,0.99,0.14c-0.32,1.23-0.44,2.53-0.32,3.79h2.21 c-0.11-0.84-0.19-1.69-0.19-2.54c0-0.21,0.02-0.42,0.04-0.63c0.5,0.26,0.97,0.58,1.39,0.95C64.46,53.71,64.42,54.37,64.34,55.03 c-0.00999,0.08-0.02,0.16-0.03,0.24h2.71C67.01,54.9,66.98,54.53,66.93,54.17c-0.11-0.99-0.28-1.97-0.49-2.94 c-0.16-0.78-0.35001-1.56-0.55-2.34c-0.19-0.72-0.4-1.44-0.67-2.14c0.6-0.65,1.27-1.26,1.85-1.91c0.17-0.19,0.34-0.38,0.49-0.58 C67.91,43.8,68.21,43.3,68.41,42.74C68.77,41.69,68.71,40.53,68.43,39.46z M54.47,52.39c-0.38,0.3-0.73,0.63-1.04,0.98 c-0.34,0.35-0.64,0.71-0.94,1.09c0.24-0.76,0.56-1.49,0.93-2.18c0.15-0.27,0.31-0.53,0.48-0.79c0.64-0.97,1.42-1.84,2.31-2.59 c-0.08,0.12-0.17,0.24-0.24,0.36c-0.45,0.79-0.8,1.63-1.06,2.51c-0.03,0.11-0.07,0.23-0.1,0.35C54.69,52.2,54.58,52.29,54.47,52.39 z M64.48,52.98c-0.38-0.51-0.84-0.95-1.37-1.3c0.12-1.33,0.47-2.64,1.18-3.76c0.13,1.36,0.22,2.71,0.22,4.07 C64.51,52.32,64.49,52.65,64.48,52.98z M45.09,48.85c-0.74,1.35-1.32,2.8-1.49,4.32c-0.3-2.46-1.24-4.84-2.72-6.82 c0.09,0.34,0.17,0.69,0.26,1.03c0,0.01,0,0.02,0.01,0.03c0.43,1.76,0.82,3.52,1.01,5.32c0.01,0.06,0.01,0.11,0.01,0.17 c0.06,0.61,0.08,1.24,0.09,1.85c-0.63-0.55-1.14-1.2-1.57-1.9v-0.01c-0.06-0.09-0.12-0.18-0.17-0.27 c-0.45-1.71-0.68-3.47-0.56-5.22c0.04-0.67,0.14-1.33,0.29-1.98c0.07-0.33,0.16-0.65,0.26-0.97c0.44-1.4,1.13-2.71,2.1-3.8 c-1.18,0.73-2.19,1.71-3,2.84c-0.06,0.09-0.12,0.18-0.18,0.27c-0.77,1.16-1.32,2.46-1.59,3.82c-0.16-0.26-0.34-0.51-0.54-0.74 c-0.17-0.2-0.35-0.4-0.54-0.58c0.04-0.09,0.08-0.18,0.13-0.27c0.38-0.78,0.84-1.52,1.4-2.18c-0.54,0.6-1.07,1.21-1.57,1.85 c-0.09,0.11-0.17,0.22-0.26,0.33c-0.05-0.04-0.1-0.09-0.15-0.13c0.04,0.06,0.08,0.11,0.12,0.17c-0.22,0.29-0.43,0.58-0.64,0.88 c-0.28,0.41-0.55,0.82-0.8,1.24c-0.35,0.61-0.68,1.24-0.95,1.9c-0.41-1.07-0.79-2.16-1-3.27c-0.03-0.18-0.06-0.36-0.09-0.55 c-0.37-2.64,0.22-5.43,1.64-7.69c-1.68,1.23-2.75,3.18-3.16,5.23c-0.14,0.7-0.21,1.42-0.21,2.13c-0.01,1.14,0.14,2.29,0.4,3.41 c0.05,0.22,0.1,0.44,0.16,0.65c0.06,0.21,0.12,0.42,0.19,0.63c0.31,1.05,0.72,2.06,1.15,3.07c-0.01,0.09-0.01,0.19-0.02,0.28 c-0.04-0.07-0.07-0.14-0.11-0.22c-0.3-0.52-0.63-1.02-1.02-1.48c-0.25-0.31-0.53-0.59-0.84-0.85c-0.13-0.1-0.26-0.2-0.4-0.3 c-0.25-0.17-0.51-0.32-0.79-0.44c-0.05-0.08-0.1-0.17-0.16-0.25c-0.33-0.54-0.69-1.07-1.06-1.6c-0.21-0.3-0.43-0.6-0.64-0.9 c-0.01-0.01-0.01-0.02-0.02-0.03c0.01,0.02,0.01,0.03,0.02,0.05c0.29,0.75,0.59,1.52,0.86,2.29c0.02,0.05,0.04,0.1,0.06,0.15h-0.03 c-0.36-0.08-0.74-0.1-1.1-0.05c-0.1,0-0.2,0.02-0.3,0.04c-0.05-0.43-0.07-0.85-0.07-1.28c0.01-1.2,0.22-2.41,0.68-3.52 c0.17-0.41,0.37-0.8,0.6-1.17c-0.25,0.31-0.49,0.64-0.71,0.98c-0.64,0.95-1.14,1.99-1.5,3.08c-0.29,0.85-0.49,1.72-0.59,2.61 c-0.04,0.37-0.04,0.74-0.05,1.11c-0.32-1.76-0.26-3.58-0.02-5.37c0.08-0.59,0.18-1.18,0.29-1.77c-0.17,0.43-0.34,0.86-0.5,1.3 c-0.44,1.18-0.83,2.39-1.04,3.62c-0.11,0.65-0.18,1.31-0.17,1.98c-0.04-0.24-0.08-0.47-0.11-0.71c-0.19-1.34-0.31-2.69-0.36-4.03 c-0.04-1.25-0.02-2.51,0.07-3.76c0.11-1.81,0.37-3.62,0.75-5.4c-0.45,1.63-0.81,3.28-1.07,4.95c-0.11,0.7-0.2,1.41-0.28,2.11 c-0.14,1.27-0.23,2.55-0.26,3.83c-0.16-0.44-0.32-0.88-0.52-1.3c-0.02-0.04-0.03-0.07-0.05-0.11c-0.41-0.87-0.91-1.69-1.51-2.44 c-0.57-0.73-1.22-1.4-1.94-1.97c0.16-1.49,0.43-2.97,0.82-4.41c-0.54,0.86-0.94,1.77-1.25,2.72c-0.05,0.15-0.1,0.3-0.14,0.45 c-0.07,0.23-0.13,0.47-0.19,0.7c-0.16-0.11-0.31-0.24-0.49-0.34c0.17,0.15,0.3,0.33,0.46,0.48c-0.18,0.75-0.32,1.52-0.43,2.29 c-0.14,0.99-0.24,1.99-0.31,2.98c-0.06,0.86-0.11,1.72-0.13,2.58c-0.25-1.23-0.56-2.46-0.94-3.66c-0.02-0.06-0.04-0.13-0.06-0.19 c-0.26-0.82-0.56-1.64-0.88-2.45c-0.4-1.03-0.84-2.04-1.32-3.03c-0.31-0.67-0.64-1.33-0.99-1.98c0.15,0.29,0.24,0.63,0.35,0.93 c0.19,0.52,0.37,1.03,0.55,1.56c0.72,2.18,1.28,4.42,1.67,6.69c0.4,2.28,0.62,4.59,0.68,6.91h3.96c-0.2-0.67-0.4-1.33-0.58-2 c-0.56-2.1-0.87-4.26-0.93-6.43c-0.03-1.13,0.01-2.26,0.11-3.39c0.58,0.71,1.08,1.47,1.51,2.28c-0.14,0.44-0.25,0.89-0.35,1.34 c-0.27,1.22-0.39,2.47-0.39,3.72c0.01,1.51,0.23,3.02,0.65,4.48h4.46c-0.03-0.19-0.06-0.39-0.09-0.58c0.07,0.2,0.14,0.39,0.22,0.58 h4.29c-0.09-0.8-0.09-1.59,0.05-2.37v-0.01c0.04-0.22,0.09-0.44,0.15-0.65c0.13,0.41,0.25,0.81,0.35,1.22 c0.17,0.6,0.32,1.2,0.43,1.81h1.42c-0.11-0.62-0.28-1.24-0.5-1.83c-0.02-0.06-0.05-0.12-0.08-0.18c0.05,0.05,0.1,0.09,0.14,0.14 c0.47,0.57,0.86,1.2,1.17,1.87h4.22c0.04-0.22,0.1-0.43,0.16-0.65C36.99,54.81,37,55.01,37,55.2v0.07h1.34 c-0.13-0.75-0.33-1.49-0.56-2.21c-0.02-0.08-0.06-0.16-0.08-0.23c0.08-0.16,0.17-0.32,0.26-0.48c0.23,1,0.56,1.98,0.97,2.92h5.93 C44.03,53.24,44.24,50.88,45.09,48.85z M22.55,54.02c-0.96-1.78-1.54-3.77-1.71-5.79c-0.07-0.74-0.08-1.49-0.03-2.24 c0.29,0.57,0.56,1.16,0.78,1.76c0.16,0.4,0.3,0.81,0.42,1.23c0.27,0.98,0.46,1.98,0.58,2.99c0.09,0.72,0.06,1.52,0.1,2.3 C22.65,54.19,22.6,54.11,22.55,54.02z M29.49,52.76c-0.25,0.78-0.47,1.58-0.6,2.39c-0.16-0.44-0.33-0.88-0.48-1.32 c-0.24-0.67-0.45-1.35-0.59-2.05c-0.1-0.45-0.18-0.9-0.23-1.35c0.09,0.05,0.18,0.11,0.26,0.16c0.46,0.28,0.91,0.56,1.34,0.87 c0.09,0.06,0.19,0.12,0.28,0.19c0.07,0.19,0.13,0.38,0.19,0.57C29.6,52.4,29.54,52.58,29.49,52.76z M37.42,52.03 c-0.33-0.91-0.69-1.82-1.08-2.72c0.2,1.13,0.37,2.26,0.5,3.4c-0.07,0.09-0.14,0.17-0.2,0.26c-0.32,0.42-0.61,0.86-0.85,1.33 c-0.12-0.86-0.2-1.73-0.2-2.59c0-0.61,0.04-1.22,0.11-1.82c0.03-0.27,0.08-0.55,0.14-0.82c0.05-0.32,0.12-0.63,0.21-0.94 c0.17-0.61,0.38-1.2,0.64-1.78c0.39,0.55,0.75,1.12,1.07,1.71c-0.03,0.16-0.06,0.31-0.08,0.46c-0.09,0.93-0.06,1.87,0.08,2.8 c0.02,0.12,0.05,0.23,0.07,0.34C37.69,51.79,37.55,51.9,37.42,52.03z M15.61,53.97c-0.2-0.56-0.45-1.11-0.71-1.65 c-0.43-1.59-0.66-3.24-0.36-4.84c-0.34,0.91-0.53,1.86-0.63,2.82c-0.25-0.51-0.48-1.02-0.66-1.56c-0.85-2.47-0.75-5.15-0.63-7.76 c-1,2.45-1.35,5.17-1,7.79c0.07,0.53,0.19,1.05,0.32,1.57c-0.31-0.17-0.62-0.31-0.95-0.43c-0.61-0.22-1.24-0.37-1.88-0.42 c-0.45-0.04-0.91-0.03-1.36,0.03c-0.02,0-0.04,0.01-0.06,0.01C5.95,49.77,4.37,50.68,3,51.77c1.51-0.34,3.06-0.42,4.59-0.25 c0.26,0.03,0.52,0.07,0.78,0.11c0.27,0.04,0.53,0.11,0.8,0.17c0.07,1,0.2,1.99,0.46,2.96c-0.43-0.2-0.88-0.35-1.34-0.44 c-1.12-0.24-2.3-0.18-3.37,0.22c1.1-0.14,2.24,0.12,3.18,0.73h4.37c-0.65-0.79-1.23-1.62-1.76-2.48c-0.13-0.2-0.25-0.41-0.37-0.61 c0.21,0.08,0.41,0.18,0.61,0.29c0.37,0.19,0.72,0.43,1.03,0.72c0.62,0.57,1.07,1.3,1.38,2.08h2.59 C15.87,54.83,15.75,54.39,15.61,53.97z M69.15,52.5c-0.12-0.61-0.19-1.24-0.2-1.87c-0.07-2.38,0.57-4.77,1.86-6.77 c-1.06,1.25-1.96,2.65-2.59,4.15c-0.4,0.93-0.69,1.9-0.86,2.9c-0.2,1.23-0.2,2.5,0.02,3.73c0.04,0.21,0.09,0.42,0.15,0.63h2.5 c-0.15-0.34-0.3-0.68-0.42-1.03C69.41,53.67,69.25,53.09,69.15,52.5z M89.52,53.44c-0.45,0.45-0.92,0.87-1.41,1.26 c-0.41-0.09-0.83-0.14-1.25-0.15c0.08-0.59,0.19-1.18,0.32-1.77c0.06-0.31,0.14-0.61,0.22-0.92c0.03-0.08,0.06-0.17,0.08-0.25 c0.35999-0.02,0.71-0.01,1.07,0.02c0.38,0.03,0.75999,0.09,1.12,0.18c0.17,0.03,0.33,0.07,0.49001,0.12 c0.2,0.05,0.50999,0.05,0.53-0.16c0-0.07-0.03-0.13-0.06001-0.18c-0.21999-0.37-0.55-0.66-0.93-0.88 c-0.32-0.17-0.68-0.28-1.03999-0.33c-0.06001-0.02-0.13-0.02-0.19-0.03c-0.2-0.02-0.4-0.02-0.61,0c0.22-0.67,0.47-1.34,0.73-2 C88.85,47.67,89.12,47,89.4,46.33c0.08-0.2,0.17-0.4,0.25-0.6c-0.1,0.08-0.2,0.16-0.3,0.24c-0.29,0.23-0.56,0.49-0.8,0.77 c-0.77,0.82-1.38,1.78-1.84,2.81c-0.03,0.07-0.06,0.13-0.09,0.2c-0.13,0.3-0.24001,0.61-0.35001,0.92 C86.16,50.71,86.05,50.74,85.94,50.78c-0.2,0.07-0.4,0.16-0.59,0.24c-0.26-1.2-0.63-2.37-1.12-3.5 C84.13,47.27,84.02,47.03,83.9,46.79c0.15,0.53,0.27,1.06,0.36,1.6c0.2,0.98,0.3,1.97,0.34,2.96c-0.48,0.24-0.93999,0.5-1.38,0.81 c0.02-0.23,0.04-0.46,0.07-0.68c0.07-0.75,0.2-1.49,0.38-2.23c-0.68,0.85-1.04,1.87-1.21,2.95c-0.03,0.21-0.06,0.41-0.08,0.62 c-0.04,0.04-0.09,0.07-0.13,0.1c-0.4,0.37-0.75,0.79-1.06,1.23c0-0.31-0.01-0.62-0.03-0.93c-0.01-0.21-0.03001-0.42-0.05-0.63 c-0.05-0.68-0.15-1.36-0.28-2.04c0.4-1.18,0.95-2.31,1.65-3.36c0.5-0.79,1.09-1.53,1.74-2.21c0.42-0.44,0.87-0.86,1.34-1.24 c-0.46,0.28-0.89999,0.59-1.32,0.92c-1.5,1.15-2.79,2.57-3.82999,4.15c-0.09-0.31-0.19-0.62-0.3-0.92 c-0.22-0.64-0.47-1.27-0.77-1.87c-0.63-1.37-1.42999-2.65-2.38-3.82c0.53,1.54,1.05,3.08,1.5,4.65v0.01 c0.21,0.74,0.41,1.48,0.57,2.23c0.07,0.32,0.13,0.65,0.19,0.97c0.03,0.21,0.07,0.41,0.1,0.62c-0.27,0.55-0.51,1.11-0.72,1.68 c-0.12,0.33-0.18999,0.67-0.29,1c-0.18999-1.39-0.49-2.76-0.89-4.1c0.2-0.57,0.43-1.13,0.69-1.68c0.11-0.24,0.23-0.48,0.35-0.72 c-0.13,0.23-0.25,0.46-0.36,0.69c-0.26,0.49-0.51,0.98-0.75,1.47c-0.12-0.4-0.25-0.79-0.4-1.18C76.65,46.98,76.3,46.13,75.91,45.31 c-0.13-0.28-0.26-0.55-0.4-0.82c0.12,0.31,0.23,0.62,0.32999,0.93c0.35001,1.05,0.61,2.12,0.81001,3.21l0.15,0.96 c0.02,0.14,0.03999,0.29,0.06,0.44c-0.07,0.15-0.14,0.29-0.2,0.44c-0.21001,0.42-0.41,0.85-0.59,1.28 c-0.25,0.54-0.49,1.09-0.72,1.63c-0.06-0.61-0.13-1.23-0.18999-1.84C75,50.04,74.85,48.53,74.7,47.03 c-0.07999-0.73-0.16-1.46-0.23-2.19c-0.13,0.95-0.26,1.91-0.39,2.86c-0.13,0.97-0.26,1.93-0.4,2.9c-0.09-0.72-0.23-1.43-0.39-2.14 c-0.16-0.68-0.34-1.35-0.53-2.02c-0.06001-0.22-0.13-0.43-0.19-0.65c0,0.29,0,0.59-0.03,0.88c-0.09,2.52-0.64,5.03-1.61,7.36 c-0.16,0.42-0.35,0.83-0.56,1.24H74.34c0.01,0.03,0,0.05,0,0.08c0.01-0.03,0.02-0.05,0.02-0.08h1.83 c0.07999-1.54,0.34-3.06,0.75999-4.55c0.16,1.48,0.23,2.97,0.25,4.46v0.09h6.05c-0.04-0.41-0.06-0.82-0.07-1.23 c0.39-0.58,0.87-1.08,1.44-1.48c-0.01,0.49-0.04,0.97-0.08,1.45c-0.03,0.32-0.06,0.63-0.1,0.95c-0.23,0.09-0.46,0.19-0.68,0.31 H86.77v-0.04c0.32-0.1,0.64001-0.18,0.97-0.22c-0.12,0.09-0.23,0.17-0.35,0.26h2.4c0.08-0.12,0.15-0.24,0.22-0.36 c1.18-1.99,2.09-4.13,2.99-6.27C92.12,50.42,90.93,52.05,89.52,53.44z M85.65,52.92c-0.03-0.3-0.08-0.59-0.12-0.88 c0.11-0.05,0.24-0.09,0.36-0.13C85.8,52.25,85.72,52.58,85.65,52.92z" fill="#93C808"/></g><g id="change2_1"><path d="M61.05,55.45c-0.02-0.06-0.04-0.12-0.06-0.18h0.04C61.04,55.33,61.04,55.39,61.05,55.45z" fill="#93C808"/></g><g id="change2_3"><path d="M74.34,55.27h0.02c0,0.03-0.01,0.05-0.02,0.08C74.34,55.32,74.35,55.3,74.34,55.27z" fill="#93C808"/></g></svg>